<svg id="Layer_2" data-name="Layer 2" xmlns="http://www.w3.org/2000/svg" viewBox="0 0 72 72"><defs><style>.cls-1{fill:#178aff;}.cls-2{fill:#fff;}</style></defs><path class="cls-1" d="M275.77,258.54c-4.75,21.53-8.52,27.55-11.42,27.46-5.84-.18-8.22-25.11-14.48-25.11S241.24,285.82,235.4,286c-3.17.09-7.39-7.12-12.79-34a19.78,19.78,0,0,1-2.16-1.91c8.16-10,14.89-12.44,20.06-12.25C253.62,238.34,261.78,255.93,275.77,258.54Z" transform="translate(-214 -214)"/><path class="cls-2" d="M277.14,252c-.47,2.31-.93,4.49-1.37,6.52-14-2.61-22.15-20.2-35.26-20.68-5.17-.19-11.9,2.26-20.06,12.25-7-7.06-8.47-18.53-3.59-26.84,6.74-11.47,22.13-11,27.63-5.48,3.45,3.47,3.2,9.13,5.67,9.38s3.4-6,7.86-9.43c6-4.53,18.71-4.11,24.87,5.53C288.6,232.21,286.31,245.49,277.14,252Z" transform="translate(-214 -214)"/></svg>