<?xml version="1.0" encoding="utf-8"?>
<!-- Generator: Adobe Illustrator 26.0.1, SVG Export Plug-In . SVG Version: 6.00 Build 0)  -->
<svg version="1.1" id="Layer_1" xmlns="http://www.w3.org/2000/svg" xmlns:xlink="http://www.w3.org/1999/xlink" x="0px" y="0px"
	 viewBox="0 0 1296 1728" style="enable-background:new 0 0 1296 1728;" xml:space="preserve">
<style type="text/css">
	.st0{fill:#1272A5;}
	.st1{fill:#0EAEEA;}
	.st2{fill:#0EAFEA;}
	.st3{fill:#1272A4;}
	.st4{fill:none;}
	.st5{font-family:'Futura-Bold';}
	.st6{font-size:130px;}
	.st7{font-family:'Elephant-Italic';}
	.st8{font-size:85px;}
	.st9{letter-spacing:11;}
</style>
<g>
	<path class="st0" d="M570.53,941.09c-89.79-92.38-151.55-197.51-183.28-322.31c11.93,0.84,22.38,0.32,32.07,2.78
		c4.73,1.2,10.21,7.29,11.69,12.25c17.57,58.93,43.42,114.05,75.99,165.99c12.61,20.11,27.34,38.9,41.97,59.51
		c12.01-27.41,21.75-52.91,34.26-76.96c8.06-15.51,19.11-29.84,30.75-43c15.56-17.6,36.3-23.93,59.19-17.82
		c23.13,6.17,39.15,21.88,39.68,45.95c0.67,30.51-2.74,61.13-4.96,91.66c-1.06,14.6-3.42,29.1-5.19,43.64
		c1.44,0.99,2.88,1.98,4.32,2.96c5.57-3.82,11.82-6.94,16.61-11.57c47.43-45.85,84.24-98.85,108.26-160.6
		c15.73-40.43,16.11-40.28,62.98-59.3c-12.59,34.45-22.25,65.5-35.14,95.14c-23.67,54.43-57.96,102.15-99.41,144.41
		c-10.87,11.08-24.13,21.74-38.36,27.19c-32.88,12.6-56.04-3.62-56.17-39.04c-0.08-21.48,4.95-42.95,6.99-64.48
		c1.72-18.15,3.91-36.48,2.93-54.57c-0.45-8.21-6.32-19.66-13-22.87c-5.2-2.51-17.59,3.38-23.08,9.09
		c-25.56,26.6-38.18,60.51-48.76,94.96C583.33,888.64,577.68,913.74,570.53,941.09z"/>
	<path class="st1" d="M733.02,699c-73.88-1.48-131.38-21.23-187.52-46.8c-32.71-14.9-65.65-29.47-99.26-42.16
		c-40.66-15.36-81.76-15.14-122.05,2.92c-3.63,1.63-7.41,3.27-11.29,3.89c-10.78,1.73-21.56-1.04-22.06-12.8
		c-0.34-7.83,4.66-20.41,10.81-23.27c44.3-20.67,91.17-29.41,138.3-12.47c49.36,17.74,97.93,37.99,145.84,59.4
		c91.73,41,183.06,41.6,273.68-1.08c35.52-16.73,69.17-37.53,103.2-57.29c11.83-6.87,22.61-10.51,31.45,2.31
		c8.88,12.89,2.22,21.28-9.53,29.33c-59.43,40.71-121.97,74.54-193.28,89.11C768.41,694.78,745.05,697.21,733.02,699z"/>
	<path class="st2" d="M723.65,619.8c-53.92,0.18-103.94-15.04-152.72-35.96c-41.97-18-83.69-36.71-126.28-53.15
		c-42-16.2-84.11-11.93-125.81,3.95c-6.73,2.56-17.01,0.94-23.43-2.68c-3.9-2.2-6-12.64-4.44-18.09c1.56-5.45,7.92-11,13.52-13.57
		c60.84-27.92,121.16-21.36,181.27,3.33c55.43,22.77,110.17,47.75,166.97,66.46c49.83,16.41,101.87,12.07,152.42-2.33
		c53.82-15.34,103.13-40.21,149.11-71.91c20.78-14.33,34.66-15.43,41.37-2.16c10.04,19.85-7.69,26.27-19.28,33.98
		c-60.9,40.51-125.45,73.17-198.15,86.58C760.28,617.54,741.85,618.02,723.65,619.8z"/>
	<path class="st3" d="M388.48,468.2c16.23-53.19,72.9-92.19,126.57-68.08c20.01,8.99,39.38,20.39,57.06,33.39
		c38.74,28.47,79.07,52.55,128.28,56.3c57.28,4.36,104.09-20.31,146.88-54.99c11.38-9.22,22.07-19.28,36.74-32.16
		c7.45,38.38,14.19,73.08,21.13,108.78c-12.78,7.07-24.09,13.32-37.23,20.59c-2.66-18.99-5.09-36.31-7.76-55.39
		c-10.51,6.22-20.12,11.73-29.56,17.53c-76.8,47.17-154.42,46.45-232.03,2.79c-19.74-11.11-37.38-25.89-56.51-38.17
		c-13.39-8.59-27.16-16.95-41.66-23.36c-22.3-9.86-45.18-3.21-56.69,14.99c-12.86,20.32-27.78,20.9-46.68,18.56
		C394.19,468.62,391.36,468.46,388.48,468.2z"/>
</g>
</svg>
